<svg width="127" height="44" viewBox="0 0 127 44" fill="none" xmlns="http://www.w3.org/2000/svg">
<g clip-path="url(#clip0_379_4695)">
<path d="M16.737 11.1154H19.1394C19.299 11.1154 19.4267 10.9881 19.4267 10.8369C19.4267 10.6778 19.299 10.5505 19.1394 10.5505H16.737C16.5853 10.5505 16.4497 10.6778 16.4497 10.8369C16.4497 10.996 16.5774 11.1154 16.737 11.1154ZM17.9422 32.1208C17.2558 32.1208 16.6891 32.6857 16.6891 33.37C16.6891 34.0542 17.2478 34.6192 17.9422 34.6192C18.6366 34.6192 19.1953 34.0622 19.1953 33.37C19.1953 32.6778 18.6366 32.1208 17.9422 32.1208ZM11.8045 31.0546H24.0799V12.9613H11.8045V31.0546ZM51.1528 25.111C50.5701 25.111 50.0434 25.302 49.5725 25.6839C49.1016 26.0738 48.7903 26.575 48.6466 27.2036C48.5748 27.498 48.5429 27.7367 48.5429 27.9197V29.6781C48.5429 30.4499 48.7743 31.1024 49.2532 31.6275C49.7241 32.1526 50.3387 32.4231 51.0969 32.4231C51.9828 32.4231 52.6772 32.081 53.1721 31.3967C53.6669 30.7125 53.9143 29.8134 53.9143 28.6915C53.9143 27.6651 53.6829 26.8137 53.22 26.1454C52.7091 25.4532 52.0227 25.0951 51.1608 25.0951L51.1528 25.111ZM94.1885 24.9678C93.2467 24.9678 92.5204 25.3895 92.0335 26.225C91.6025 26.9172 91.395 27.7606 91.395 28.7631C91.395 29.7656 91.6025 30.5693 92.0335 31.2615C92.5363 32.0969 93.2546 32.5186 94.1725 32.5186C95.0904 32.5186 95.7768 32.0969 96.2876 31.2376C96.7266 30.5374 96.95 29.694 96.95 28.7233C96.95 27.7526 96.7425 26.9172 96.3195 26.225C95.8167 25.3816 95.1143 24.9678 94.1964 24.9678H94.1885ZM62.8216 25.111C62.2389 25.111 61.7122 25.302 61.2413 25.6839C60.7704 26.0738 60.4591 26.575 60.3074 27.2036C60.2356 27.498 60.2037 27.7367 60.2037 27.9197V29.6781C60.2037 30.4499 60.4351 31.1024 60.914 31.6275C61.3849 32.1526 61.9995 32.4231 62.7577 32.4231C63.6516 32.4231 64.338 32.081 64.8409 31.3967C65.3357 30.7125 65.5831 29.8134 65.5831 28.6915C65.5831 27.6651 65.3517 26.8137 64.8808 26.1454C64.37 25.4532 63.6836 25.0951 62.8216 25.0951V25.111ZM38.4384 21.3237H38.3985C38.2469 21.9523 38.0234 22.8673 37.6961 24.0926L36.475 27.9277H40.4258L39.1887 24.0926C39.053 23.6948 38.8056 22.7797 38.4384 21.3237ZM112.083 24.8485C111.317 24.8485 110.686 25.1747 110.207 25.8112C109.816 26.3204 109.577 26.9251 109.505 27.6333H114.421C114.437 26.941 114.286 26.3363 113.966 25.8271C113.559 25.1747 112.929 24.8485 112.083 24.8485ZM48.8462 14.4014C48.8781 14.298 48.8781 14.2025 48.8781 14.0991V13.3512C47.9044 13.3432 46.9705 13.5421 46.9705 14.3696C46.9705 14.9107 47.3217 15.1573 47.7527 15.1573C48.3114 15.1573 48.7105 14.7993 48.8462 14.4094V14.4014ZM35.9722 10.9722C35.8285 10.5107 35.7008 10.0014 35.5891 9.56383H35.5651C35.4534 10.0014 35.3336 10.5266 35.2059 10.9722L34.6233 12.834H36.5628L35.9642 10.9722H35.9722ZM121.629 0H5.3635C2.41038 0 0 2.40289 0 5.34684V38.6532C0 41.5971 2.41038 43.992 5.3635 43.992H121.629C124.59 43.992 126.992 41.5971 126.992 38.6532V5.34684C126.992 2.39494 124.582 0 121.629 0ZM114.254 10.447C116.026 10.447 116.616 11.9031 116.616 13.0966C116.616 13.3512 116.592 13.558 116.568 13.6774H112.905C112.937 14.664 113.703 15.0857 114.589 15.0857C115.227 15.0857 115.682 14.9902 116.105 14.8391L116.305 15.7779C115.834 15.9769 115.18 16.128 114.397 16.128C112.626 16.128 111.58 15.0459 111.58 13.375C111.58 11.8633 112.498 10.4391 114.254 10.4391V10.447ZM92.3368 10.5664L92.4006 11.3859H92.4326C92.68 10.9562 93.2706 10.447 94.1805 10.447C95.1383 10.447 96.12 11.0597 96.12 12.7863V16.0246H94.7392V12.9454C94.7392 12.1656 94.4439 11.5689 93.6936 11.5689C93.1429 11.5689 92.7598 11.9588 92.6161 12.3725C92.5683 12.4839 92.5523 12.651 92.5523 12.8101V16.0246H91.1715V12.1975C91.1715 11.5689 91.1476 11.0438 91.1236 10.5743H92.3288L92.3368 10.5664ZM77.8346 10.447C79.6065 10.447 80.1971 11.9031 80.1971 13.0966C80.1971 13.3512 80.1731 13.558 80.1492 13.6774H76.4857C76.5177 14.664 77.2839 15.0857 78.1698 15.0857C78.8083 15.0857 79.2553 14.9902 79.6863 14.8391L79.8858 15.7779C79.4149 15.9769 78.7604 16.128 77.9782 16.128C76.2064 16.128 75.1608 15.0459 75.1608 13.375C75.1608 11.8633 76.0787 10.4391 77.8346 10.4391V10.447ZM72.1758 8.07595H73.5566V16.0246H72.1758V8.07595ZM61.2253 11.4257C60.6826 11.4257 60.1239 11.5928 59.7567 11.8315L59.4854 10.9324C59.8924 10.6857 60.5948 10.455 61.4647 10.455C63.2206 10.455 63.7235 11.5609 63.7235 12.7624V14.7197C63.7235 15.213 63.7474 15.6904 63.8113 16.0326H62.5662L62.4624 15.4278H62.4305C62.1033 15.8495 61.5286 16.1519 60.8103 16.1519C59.7088 16.1519 59.0943 15.3562 59.0943 14.5288C59.0943 13.1602 60.3154 12.46 62.3427 12.468V12.3805C62.3427 12.0224 62.199 11.4257 61.2333 11.4257H61.2253ZM53.0603 8.30669C53.5312 8.30669 53.8265 8.63291 53.8345 9.05461C53.8345 9.4604 53.5312 9.79458 53.0444 9.79458C52.5575 9.79458 52.2782 9.4604 52.2782 9.05461C52.2782 8.63291 52.5894 8.30669 53.0523 8.30669H53.0603ZM53.7467 10.5823V16.0326H52.3659V10.5823H53.7467ZM34.751 8.48969H36.5149L38.9732 16.0326H37.4806L36.7942 13.8922H34.3998L33.7453 16.0326H32.3167L34.743 8.48969H34.751ZM25.5564 33.5132C25.5564 34.842 24.471 35.9241 23.1381 35.9241H12.7623C11.4294 35.9241 10.3439 34.8499 10.3439 33.5132V10.5186C10.3439 9.18987 11.4294 8.10778 12.7623 8.10778H23.1381C24.471 8.10778 25.5564 9.18987 25.5564 10.5186V33.4973V33.5132ZM42.2296 34.0622L40.8568 29.7577H36.0679L34.759 34.0622H32.3167L37.0496 19.3823H39.9788L44.7437 34.0622H42.2296ZM42.7643 16.0326H41.4075L39.3722 10.5823H40.8648L41.7507 13.3512C41.9103 13.8286 42.0221 14.2662 42.1178 14.7197H42.1498C42.2535 14.2741 42.3732 13.8445 42.5169 13.3512L43.3949 10.5823H44.8475L42.7563 16.0326H42.7643ZM45.6057 14.5367C45.6057 13.1682 46.8269 12.468 48.8541 12.476V12.3884C48.8541 12.0304 48.7105 11.4336 47.7447 11.4336C47.202 11.4336 46.6433 11.6007 46.2761 11.8394L46.0048 10.9403C46.4118 10.6937 47.1142 10.4629 47.9842 10.4629C49.7321 10.4629 50.2429 11.5689 50.2429 12.7703V14.7277C50.2429 15.221 50.2668 15.6984 50.3307 16.0405H49.0856L48.9818 15.4358H48.9499C48.6227 15.8575 48.048 16.1599 47.3297 16.1599C46.2283 16.1599 45.6137 15.3642 45.6137 14.5367H45.6057ZM54.8402 32.9085C53.9622 33.8315 52.8688 34.3009 51.5678 34.3009C50.1551 34.3009 49.1494 33.7996 48.5349 32.7971V38.3588H46.1804V26.957C46.1804 25.8271 46.1484 24.6655 46.0926 23.4799H48.1677L48.2954 25.1588H48.3353C49.1255 23.9016 50.3147 23.2651 51.919 23.2651C53.1721 23.2651 54.2097 23.7584 55.0557 24.745C55.8937 25.7316 56.3088 27.0365 56.3088 28.6438C56.3088 30.4499 55.8219 31.8662 54.8322 32.9165L54.8402 32.9085ZM57.2985 16.0326H55.9177V8.08391H57.2985V16.0326ZM66.509 32.9085C65.631 33.8315 64.5376 34.3009 63.2366 34.3009C61.8319 34.3009 60.8183 33.7996 60.2117 32.7971V38.3588H57.8492V26.957C57.8492 25.8271 57.8172 24.6655 57.7614 23.4799H59.8286L59.9642 25.1588H60.0041C60.7943 23.9016 61.9835 23.2651 63.5878 23.2651C64.8409 23.2651 65.8864 23.7584 66.7245 24.745C67.5625 25.7316 67.9855 27.0365 67.9855 28.6438C67.9855 30.4499 67.4987 31.8662 66.509 32.9165V32.9085ZM68.1292 16.1599C67.4189 16.1599 66.7963 15.8893 66.3972 15.221H66.3733L66.3094 16.0405H65.1282C65.1521 15.6745 65.1761 15.0698 65.1761 14.5049V8.09186H66.5569V11.3382H66.5808C66.916 10.813 67.5146 10.4629 68.3367 10.4629C69.6696 10.4629 70.6274 11.5689 70.6194 13.2239C70.6194 15.1812 69.3743 16.1599 68.1372 16.1599H68.1292ZM80.0055 32.996C79.0398 33.8553 77.7069 34.277 75.9909 34.277C74.4026 34.277 73.1335 33.9747 72.1758 33.362L72.7265 31.4047C73.7561 32.0094 74.8974 32.3197 76.1266 32.3197C77.0205 32.3197 77.7069 32.1208 78.2017 31.723C78.6966 31.3251 78.944 30.792 78.944 30.1157C78.944 29.5269 78.7365 29.0257 78.3374 28.6199C77.9224 28.2141 77.2519 27.8401 76.3101 27.4901C73.7321 26.5353 72.4471 25.1349 72.4471 23.289C72.4471 22.0875 72.8941 21.0929 73.812 20.3212C74.7218 19.5573 75.927 19.1675 77.4275 19.1675C78.7684 19.1675 79.8778 19.3982 80.7717 19.8597L80.1731 21.7772C79.3431 21.3316 78.4013 21.1009 77.3477 21.1009C76.5177 21.1009 75.8632 21.3078 75.3923 21.7056C75.0012 22.0716 74.8017 22.5172 74.8017 23.0344C74.8017 23.6072 75.0251 24.0926 75.4801 24.4745C75.8712 24.8246 76.5895 25.1986 77.6191 25.6043C78.8881 26.1056 79.822 26.7103 80.4206 27.3946C81.0192 28.0788 81.3145 28.9222 81.3145 29.9407C81.3145 31.1899 80.8755 32.2083 80.0055 32.9881V32.996ZM88.3222 25.2383H85.7202V30.3863C85.7202 31.6911 86.1831 32.3436 87.101 32.3436C87.524 32.3436 87.8672 32.3118 88.1466 32.2401L88.2104 34.0224C87.7475 34.1975 87.1329 34.285 86.3747 34.285C85.4488 34.285 84.7146 34.0065 84.1878 33.4336C83.661 32.8687 83.3976 31.9139 83.3976 30.5852V25.2463H81.8492V23.4879H83.3976V21.5544L85.7122 20.8542V23.4879H88.3142V25.2463L88.3222 25.2383ZM86.9893 16.1599C85.4488 16.1599 84.2516 15.1096 84.2516 13.3512C84.2516 11.5928 85.4329 10.4629 87.085 10.4629C88.7372 10.4629 89.8067 11.6087 89.8067 13.2637C89.8067 15.2687 88.394 16.1599 86.9972 16.1599H86.9893ZM97.9956 32.6937C97.0139 33.7678 95.7209 34.3009 94.1087 34.3009C92.4964 34.3009 91.2992 33.7837 90.3813 32.7573C89.4555 31.7309 89.0006 30.426 89.0006 28.8586C89.0006 27.2911 89.4794 25.8749 90.4292 24.8326C91.387 23.7823 92.664 23.2651 94.2842 23.2651C95.9045 23.2651 97.1017 23.7743 98.0435 24.8087C98.9454 25.8033 99.3923 27.1002 99.3923 28.6835C99.3923 30.2669 98.9294 31.6434 97.9956 32.6937ZM100.43 10.5823H101.204V9.56383L102.561 9.18192V10.5823H103.878V11.6087H102.561V14.0195C102.561 14.6879 102.737 15.03 103.271 15.03C103.519 15.03 103.654 15.0221 103.814 14.9743L103.838 16.0166C103.638 16.0962 103.263 16.1599 102.84 16.1599C102.322 16.1599 101.906 15.9928 101.651 15.7143C101.348 15.404 101.212 14.8948 101.212 14.1787V11.6166H100.438V10.5902L100.43 10.5823ZM106.488 25.5407C106.256 25.5009 106.009 25.477 105.746 25.477C104.915 25.477 104.277 25.7873 103.822 26.408C103.431 26.9649 103.231 27.6492 103.231 28.4926V34.0463H100.869V26.7899C100.869 25.5805 100.845 24.4665 100.805 23.464H102.856L102.944 25.493H103.008C103.255 24.8007 103.646 24.2358 104.189 23.8221C104.716 23.4401 105.283 23.2571 105.897 23.2571C106.113 23.2571 106.312 23.2651 106.48 23.2969V25.5407H106.488ZM106.847 12.7624V16.0326H105.466V8.08391H106.847V11.3222H106.871C107.039 11.0676 107.278 10.8528 107.557 10.7096C107.837 10.5505 108.164 10.4629 108.515 10.4629C109.449 10.4629 110.423 11.0756 110.423 12.826V16.0405H109.042V12.9772C109.042 12.1895 108.747 11.5848 107.988 11.5848C107.446 11.5848 107.07 11.9429 106.911 12.3566C106.863 12.4839 106.855 12.6271 106.855 12.7703L106.847 12.7624ZM116.584 29.336H109.505C109.537 30.3783 109.872 31.174 110.534 31.723C111.133 32.2163 111.899 32.4629 112.849 32.4629C113.903 32.4629 114.852 32.2958 115.714 31.9617L116.089 33.6007C115.092 34.0383 113.895 34.2532 112.53 34.2532C110.886 34.2532 109.593 33.7758 108.659 32.8051C107.717 31.8423 107.246 30.5454 107.246 28.9222C107.246 27.2991 107.685 25.9942 108.555 24.936C109.481 23.8062 110.718 23.2412 112.274 23.2412C113.831 23.2412 114.964 23.8062 115.746 24.936C116.369 25.8351 116.688 26.949 116.688 28.2698C116.688 28.6915 116.656 29.0416 116.6 29.336H116.584ZM67.8179 11.5291C67.2592 11.5291 66.7404 11.9349 66.5968 12.5396C66.5728 12.643 66.5489 12.7624 66.5489 12.8976V13.7808C66.5489 13.8922 66.5569 14.0036 66.5808 14.1071C66.7245 14.664 67.2113 15.0698 67.802 15.0698C68.664 15.0698 69.1987 14.3855 69.1987 13.2796C69.1987 12.3168 68.7358 11.5291 67.8179 11.5291ZM77.7628 11.3939C76.9087 11.3939 76.5496 12.1656 76.4937 12.7226H78.8961C78.9041 12.2213 78.6806 11.3939 77.7628 11.3939ZM87.0451 11.4495C86.0714 11.4495 85.6723 12.4043 85.6723 13.3034C85.6723 14.3537 86.1991 15.1494 87.0292 15.1494C87.8113 15.1494 88.3621 14.3855 88.3621 13.2796C88.3621 12.4282 87.979 11.4416 87.0371 11.4416L87.0451 11.4495ZM60.4671 14.3855C60.4671 14.9266 60.8182 15.1732 61.2492 15.1732C61.8079 15.1732 62.207 14.8152 62.3427 14.4253C62.3746 14.3219 62.3746 14.2264 62.3746 14.123V13.375C61.4009 13.3671 60.4671 13.566 60.4671 14.3935V14.3855ZM114.19 11.3939C113.336 11.3939 112.977 12.1656 112.921 12.7226H115.323C115.331 12.2213 115.108 11.3939 114.19 11.3939Z" fill="#E6E6E6"/>
</g>
<defs>
<clipPath id="clip0_379_4695">
<rect width="127" height="44" fill="white"/>
</clipPath>
</defs>
</svg>
