<?xml version="1.0" encoding="UTF-8"?>
<svg xmlns="http://www.w3.org/2000/svg" width="58" height="24" xmlns:xlink="http://www.w3.org/1999/xlink" viewBox="0 0 58 24">
  <defs>
    <clipPath id="b">
      <rect x=".64" y=".8" width="23" height="23" fill="none"/>
    </clipPath>
  </defs>
  <g clip-path="url(#b)">
    <g>
      <path d="M11.18,2.72c0-.53,.43-.96,.96-.96,5.82,0,10.54,4.72,10.54,10.54s-4.72,10.54-10.54,10.54S1.6,18.12,1.6,12.3c0-.53,.43-.96,.96-.96s.96,.43,.96,.96c0,4.76,3.86,8.62,8.63,8.62s8.63-3.86,8.63-8.62S16.9,3.68,12.14,3.68c-.53,0-.96-.43-.96-.96Z" fill="#fff" fill-rule="evenodd"/>
      <path d="M9.26,7.83c0-.26,.3-.41,.51-.26l6.07,4.47c.17,.13,.17,.39,0,.51l-6.07,4.47c-.21,.16-.51,0-.51-.26V7.83Z" fill="#fecc02"/>
    </g>
  </g>
  <g>
    <path d="M53.85,10.78c.04-.07,.08-.13,.12-.21,.14-.26,.28-.53,.42-.82,.14-.3,.27-.59,.4-.87l-1.43-.31h3.29v-1.27h-4.97c-.05-.16-.12-.33-.2-.51-.14-.34-.3-.64-.48-.91l-1.45,.24c.16,.28,.3,.59,.43,.94,.03,.09,.06,.16,.09,.24h-5.24v1.27h8.39c-.07,.22-.15,.47-.26,.76-.11,.29-.23,.57-.36,.85-.1,.22-.19,.41-.29,.6h-3.45l.19-.04c-.05-.3-.16-.65-.33-1.05-.16-.41-.35-.77-.57-1.09l-1.38,.28c.19,.33,.36,.7,.51,1.12,.1,.29,.18,.54,.23,.78h-3.54v1.27h13.38v-1.27h-3.51Z" fill="#fff"/>
    <path d="M38.02,10.42c.47-.29,.94-.62,1.42-1,.48-.39,.93-.8,1.36-1.24,.44-.44,.83-.89,1.17-1.35l-1.33-.54c-.27,.39-.61,.78-1.02,1.18-.4,.39-.83,.75-1.29,1.09-.45,.34-.89,.63-1.33,.87,.18,.13,.36,.29,.55,.48s.34,.36,.46,.51Z" fill="#fff"/>
    <path d="M39.94,11.6c-.45,.42-.93,.81-1.44,1.17-.5,.35-.99,.65-1.48,.9,.18,.13,.36,.29,.54,.48,.19,.19,.33,.36,.43,.52,.53-.31,1.06-.66,1.58-1.05,.53-.4,1.03-.83,1.51-1.3,.49-.47,.91-.95,1.27-1.44l-1.29-.54c-.3,.42-.68,.84-1.14,1.26Z" fill="#fff"/>
    <path d="M37.19,11.55h-3.23c-.04-.09-.06-.16-.11-.25-.1-.22-.21-.41-.33-.58h3.15V6.53h-6.95v4.19h3.64l-1.19,.25c.1,.17,.19,.37,.28,.58h-3.44v1.11h8.16v-1.11Zm-6.11-4.13h4.2v.76h-4.2v-.76Zm0,1.61h4.2v.76h-4.2v-.76Z" fill="#fff"/>
    <path d="M40.12,16.22c-.5,.52-1.05,.99-1.64,1.41-.58,.41-1.17,.75-1.78,1.03-.13-.29-.31-.63-.55-1.03-.26-.43-.52-.82-.78-1.17l-1,.45c.25,.36,.49,.76,.73,1.21,.25,.44,.44,.81,.57,1.12l1.02-.5c.15,.13,.31,.28,.47,.47,.19,.21,.34,.4,.45,.57,.68-.35,1.33-.76,1.94-1.24,.63-.48,1.21-1.01,1.73-1.58,.54-.59,1-1.21,1.38-1.85l-1.32-.49c-.32,.56-.73,1.1-1.23,1.61Z" fill="#fff"/>
    <path d="M30.42,16.49c-.17,.38-.38,.76-.63,1.14-.25,.37-.51,.69-.79,.97,.09,.06,.19,.13,.31,.22,.13,.1,.25,.19,.37,.28,.12,.1,.21,.18,.28,.25,.3-.31,.59-.69,.88-1.15,.3-.47,.55-.93,.75-1.38l-1.18-.34Z" fill="#fff"/>
    <path d="M36.49,16.26v-2.96h-6.58v2.96h2.54v2.24c0,.07-.01,.11-.04,.13-.02,.03-.07,.04-.16,.04h-.46c-.22,0-.46,0-.73-.01,.09,.17,.17,.36,.25,.57,.08,.21,.13,.41,.16,.6,.41,0,.76,0,1.06-.03,.31-.02,.57-.07,.78-.16,.22-.1,.36-.23,.42-.4,.07-.17,.1-.41,.1-.72v-2.26h2.66Zm-5.26-2h3.89v1.05h-3.89v-1.05Z" fill="#fff"/>
    <path d="M45.95,19.9h1.41v-.54h6.71v.52h1.47v-6.7h-9.58v6.71Zm1.41-1.72v-1.39h6.71v1.39h-6.71Zm6.71-3.81v1.32h-6.71v-1.32h6.71Z" fill="#fff"/>
  </g>
</svg>