<svg xmlns="http://www.w3.org/2000/svg" width="24" height="24" viewBox="0 0 24 24">
  <path d="M12,.71c6.62,0,12,4.32,12,9.62,0,2.12-.83,4.03-2.57,5.92-2.52,2.86-8.15,6.35-9.43,6.88-1.24,.52-1.1-.29-1.04-.61,0,0,0-.02,0-.03,.03-.18,.17-1.01,.17-1.01,.04-.3,.08-.77-.04-1.07-.13-.33-.67-.5-1.06-.58C4.27,19.06,0,15.08,0,10.33,0,5.02,5.38,.71,12,.71ZM7.53,12.09h-2.29V7.99c0-.13-.1-.23-.23-.23h-.84c-.13,0-.23,.1-.23,.23v5.16c0,.06,.03,.12,.07,.16h0s0,0,0,0h0s.1,.07,.16,.07h3.36c.13,0,.23-.1,.23-.23v-.83c0-.13-.1-.23-.23-.23Zm1.19-4.33c-.13,0-.23,.1-.23,.23v5.16c0,.13,.1,.23,.23,.23h.84c.13,0,.23-.1,.23-.23V7.99c0-.13-.1-.23-.23-.23h-.84Zm5.79,0c-.13,0-.23,.1-.23,.23v3.07l-2.4-3.2s-.01-.02-.02-.02h0s0-.01-.01-.02h0s0-.01-.01-.01c0,0,0,0,0,0h0s0,0,0,0h0s0,0,0,0c0,0,0,0-.01,0h0s0,0,0,0c0,0,0,0-.01,0h0s0,0-.01,0h0s0,0,0,0h-.01s0,0,0,0h0s0,0,0,0h0s0,0,0,0h0s0,0,0,0h-.84c-.13,0-.23,.1-.23,.23v5.16c0,.13,.1,.23,.23,.23h.84c.13,0,.23-.1,.23-.23v-3.07l2.4,3.2s.04,.04,.06,.06h0s.01,.01,.01,.01c0,0,0,0,0,0,0,0,0,0,.01,0h.01s0,0,0,0c0,0,.01,0,.02,0,0,0,0,0,0,0,.02,0,.04,0,.06,0h.84c.13,0,.23-.1,.23-.23V7.99c0-.13-.1-.23-.23-.23h-.84Zm5.72,1.06v-.83c0-.13-.1-.23-.23-.23h-3.36c-.06,0-.12,.03-.16,.07h0s0,0,0,0h0s-.06,.1-.06,.16v5.16c0,.06,.03,.12,.07,.16,0,0,0,0,0,0,0,0,0,0,0,0,.04,.04,.1,.06,.16,.06h3.36c.13,0,.23-.1,.23-.23v-.83c0-.13-.1-.23-.23-.23h-2.29v-.87h2.29c.13,0,.23-.1,.23-.23v-.83c0-.13-.1-.23-.23-.23h-2.29v-.87h2.29c.13,0,.23-.1,.23-.23Z" fill="#fff"/>
</svg>