<?xml version="1.0" encoding="UTF-8"?>
<svg id="a" data-name="Layer 2" xmlns="http://www.w3.org/2000/svg" width="80.36" height="26" viewBox="0 0 80.36 26">
  <g id="b" data-name="Layer 1-2">
    <g opacity=".8">
      <path d="M51.63,15.35c-.63-.89-1.49-1.58-2.55-2.09-1.07-.51-2.25-.79-3.56-.83v-.24c1.18-.19,2.2-.55,3.09-1.07,.88-.51,1.57-1.15,2.06-1.92,.49-.77,.73-1.61,.73-2.55,0-1.29-.41-2.41-1.21-3.35s-2-1.68-3.58-2.2c-1.58-.52-3.53-.78-5.84-.78h-13.19V25.64h14.31c2.2,0,4.11-.31,5.7-.93s2.83-1.47,3.69-2.55,1.3-2.32,1.3-3.69c0-1.19-.32-2.23-.95-3.12h0Zm-15.8-9.64h3.51c1.03,0,1.88,.2,2.55,.62s1.01,1.02,1.01,1.8c0,.52-.15,.96-.47,1.32s-.74,.63-1.3,.83c-.55,.19-1.19,.29-1.92,.29h-3.39V5.71h0Zm6.98,13.79c-.69,.43-1.73,.65-3.12,.65h-3.86v-5.33h3.98c.84,0,1.56,.11,2.16,.32s1.06,.53,1.39,.94,.49,.92,.49,1.51c0,.85-.35,1.49-1.04,1.92h0Z" fill="#fff"/>
      <path d="M13.48,19.16c-3.41,0-6.17-2.76-6.17-6.17s2.76-6.17,6.17-6.17,6.17,2.76,6.17,6.17-2.76,6.17-6.17,6.17" fill="#fff"/>
      <path d="M13.48,21.96c-4.95,0-8.98-4.03-8.98-8.98S8.54,4.01,13.48,4.01c2.05,0,3.94,.69,5.45,1.86h3.26V.33H0V25.64H22.13v-5.54h-3.2c-1.51,1.16-3.4,1.86-5.45,1.86h0Z" fill="#fff"/>
      <path d="M73.17,17.31c-.08,.23-.17,.45-.29,.65-.24,.43-.56,.81-.94,1.11-.39,.31-.84,.54-1.36,.69-.52,.16-1.11,.24-1.76,.24-1.15,0-2.14-.27-2.96-.79-.82-.52-1.45-1.31-1.88-2.35s-.64-2.34-.64-3.89c0-1.47,.21-2.72,.63-3.77,.42-1.05,1.04-1.85,1.87-2.41s1.84-.84,3.03-.84c.68,0,1.3,.09,1.84,.28s1,.45,1.38,.8c.38,.34,.68,.74,.9,1.21,.06,.13,.11,.26,.15,.39l7.17-.68c-.2-.84-.49-1.61-.87-2.33-.64-1.21-1.49-2.24-2.54-3.08s-2.27-1.47-3.66-1.91-2.92-.65-4.57-.65c-2.36,0-4.49,.5-6.41,1.49s-3.44,2.46-4.56,4.39c-1.13,1.94-1.69,4.3-1.69,7.12s.55,5.17,1.66,7.11c1.1,1.94,2.61,3.4,4.52,4.4,1.91,1,4.07,1.5,6.48,1.5,1.92,0,3.61-.29,5.06-.86,1.45-.57,2.67-1.32,3.66-2.25s1.74-1.96,2.28-3.06c.3-.61,.52-1.21,.68-1.82l-7.17-.68h0l-.02-.02Z" fill="#fff"/>
    </g>
  </g>
</svg>