<svg width="135" height="44" viewBox="0 0 135 44" fill="none" xmlns="http://www.w3.org/2000/svg">
<g clip-path="url(#clip0_379_4694)">
<path d="M58.3766 9.36539C58.0968 9.36539 57.865 9.48484 57.6732 9.73172C57.4814 9.9786 57.3855 10.2892 57.3855 10.6635C57.3855 11.0378 57.4894 11.3723 57.6892 11.6191C57.889 11.866 58.1448 11.9855 58.4325 11.9855C58.7122 11.9855 58.944 11.8581 59.1358 11.6112C59.3277 11.3643 59.4236 11.0537 59.4236 10.6794C59.4236 10.2892 59.3197 9.96267 59.1199 9.72376C58.92 9.47688 58.6643 9.35742 58.3686 9.35742L58.3766 9.36539Z" fill="#E6E6E6"/>
<path d="M63.8674 9.38135C63.7875 9.38135 63.6756 9.38931 63.5317 9.40524C63.5477 9.77954 63.5637 10.1777 63.5637 10.5839C63.5637 11.0378 63.5717 11.4838 63.5957 11.9218C63.7156 11.9457 63.8434 11.9616 63.9633 11.9616C64.3709 11.9616 64.6747 11.8342 64.8665 11.5873C65.0583 11.3325 65.1622 11.0299 65.1622 10.6715C65.1622 10.3131 65.0583 10.0025 64.8425 9.75565C64.6347 9.50877 64.307 9.38135 63.8754 9.38135H63.8674Z" fill="#E6E6E6"/>
<path d="M73.1467 9.34952C73.0109 9.34952 72.867 9.36544 72.7231 9.38934C72.7471 9.74771 72.7551 10.1459 72.7551 10.5998C72.8031 10.5998 72.859 10.5998 72.923 10.5998C73.6103 10.5998 73.954 10.3848 73.954 9.9468C73.954 9.54065 73.6822 9.34155 73.1467 9.34155V9.34952Z" fill="#E6E6E6"/>
<path d="M69.534 9.34155C69.534 9.41323 69.3662 9.93884 69.0305 10.9184H70.0615C69.7418 9.9468 69.574 9.42119 69.574 9.34155H69.526H69.534Z" fill="#E6E6E6"/>
<path d="M42.7516 9.34155C42.7516 9.41323 42.5837 9.93884 42.248 10.9184H43.2791C42.9594 9.9468 42.7915 9.42119 42.7915 9.34155H42.7436H42.7516Z" fill="#E6E6E6"/>
<path d="M54.3566 9.34952C54.1807 9.34952 54.0209 9.36544 53.885 9.38934C53.909 9.684 53.917 10.0583 53.917 10.5282C54.0209 10.5282 54.1088 10.5282 54.1807 10.5282C54.7802 10.5282 55.0839 10.3211 55.0839 9.90698C55.0839 9.53268 54.8441 9.34155 54.3566 9.34155V9.34952Z" fill="#E6E6E6"/>
<path d="M50.2964 9.38135C50.2165 9.38135 50.1046 9.38931 49.9607 9.40524C49.9767 9.77954 49.9927 10.1777 49.9927 10.5839C49.9927 11.0378 50.0007 11.4838 50.0246 11.9218C50.1445 11.9457 50.2724 11.9616 50.3923 11.9616C50.7999 11.9616 51.1036 11.8342 51.2954 11.5873C51.4872 11.3325 51.5912 11.0299 51.5912 10.6715C51.5912 10.3131 51.4872 10.0025 51.2715 9.75565C51.0637 9.50877 50.736 9.38135 50.3044 9.38135H50.2964Z" fill="#E6E6E6"/>
<path d="M81.8104 9.36539C81.5307 9.36539 81.2989 9.48484 81.1071 9.73172C80.9152 9.9786 80.8193 10.2892 80.8193 10.6635C80.8193 11.0378 80.9232 11.3723 81.123 11.6191C81.3229 11.866 81.5786 11.9855 81.8663 11.9855C82.1461 11.9855 82.3779 11.8581 82.5697 11.6112C82.7615 11.3643 82.8574 11.0537 82.8574 10.6794C82.8574 10.2892 82.7535 9.96267 82.5537 9.72376C82.3539 9.47688 82.0981 9.35742 81.8024 9.35742L81.8104 9.36539Z" fill="#E6E6E6"/>
<path d="M76.5515 9.34952C76.4157 9.34952 76.2718 9.36544 76.1279 9.38934C76.1519 9.74771 76.1599 10.1459 76.1599 10.5998C76.2079 10.5998 76.2638 10.5998 76.3277 10.5998C77.0151 10.5998 77.3588 10.3848 77.3588 9.9468C77.3588 9.54065 77.087 9.34155 76.5515 9.34155V9.34952Z" fill="#E6E6E6"/>
<path d="M69.1583 22.6013C68.3671 22.6013 67.6797 22.896 67.0963 23.4853C66.5128 24.0746 66.2251 24.8551 66.2251 25.8346C66.2251 26.8142 66.5128 27.5867 67.0963 28.1839C67.6797 28.7733 68.3591 29.0679 69.1583 29.0679C69.9576 29.0679 70.6369 28.7733 71.2204 28.1839C71.8038 27.5946 72.0915 26.8142 72.0915 25.8346C72.0915 24.8551 71.8038 24.0826 71.2204 23.4853C70.6369 22.896 69.9496 22.6013 69.1583 22.6013Z" fill="#E6E6E6"/>
<path d="M59.3517 22.6013C58.5604 22.6013 57.8731 22.896 57.2896 23.4853C56.7062 24.0746 56.4185 24.8551 56.4185 25.8346C56.4185 26.8142 56.7062 27.5867 57.2896 28.1839C57.8731 28.7733 58.5524 29.0679 59.3517 29.0679C60.1509 29.0679 60.8303 28.7733 61.4137 28.1839C61.9972 27.5946 62.2849 26.8142 62.2849 25.8346C62.2849 24.8551 61.9972 24.0826 61.4137 23.4853C60.8303 22.896 60.1429 22.6013 59.3517 22.6013Z" fill="#E6E6E6"/>
<path d="M105.876 18.8344H103.054V23.3976H105.876C106.587 23.3976 107.154 23.1587 107.578 22.6888C108.01 22.211 108.217 21.6934 108.217 21.12C108.217 20.5466 108.002 20.021 107.578 19.5511C107.146 19.0733 106.579 18.8423 105.876 18.8423V18.8344Z" fill="#E6E6E6"/>
<path d="M116.098 26.4C115.682 26.7504 115.475 27.1645 115.475 27.6423C115.475 28.0803 115.666 28.4307 116.042 28.6856C116.418 28.9404 116.857 29.0678 117.345 29.0678C118.04 29.0678 118.672 28.805 119.239 28.2954C119.807 27.7777 120.094 27.1645 120.094 26.4637C119.615 26.0735 118.903 25.8823 117.952 25.8823C117.137 25.8823 116.514 26.0575 116.098 26.4079V26.4Z" fill="#E6E6E6"/>
<path d="M91.9848 22.6013C91.3613 22.6013 90.8179 22.7925 90.3623 23.1827C89.9067 23.5729 89.587 24.0985 89.4192 24.7515H94.6223C94.5823 24.2419 94.3505 23.7561 93.9189 23.2942C93.4873 22.8323 92.8399 22.6013 91.9848 22.6013Z" fill="#E6E6E6"/>
<path d="M78.8853 22.6013C78.102 22.6013 77.4307 22.896 76.8712 23.4853C76.3117 24.0746 76.032 24.8551 76.032 25.8346C76.032 26.8142 76.3117 27.5867 76.8712 28.1839C77.4307 28.7733 78.102 29.0679 78.8853 29.0679C79.6685 29.0679 80.3559 28.7733 80.9074 28.1919C81.4588 27.6106 81.7386 26.8221 81.7386 25.8346C81.7386 24.8471 81.4588 24.0667 80.9074 23.4773C80.3479 22.896 79.6765 22.6013 78.8853 22.6013Z" fill="#E6E6E6"/>
<path d="M129.03 0H5.97034C2.66947 0 0 2.65991 0 5.94896V38.059C0 41.3401 2.66947 44.008 5.97034 44.008H129.038C132.331 44.008 135.008 41.3481 135.008 38.059V5.94896C135.008 2.66787 132.339 0 129.038 0H129.03ZM75.3845 8.83185H75.8801C75.952 8.83185 76.0879 8.83185 76.2797 8.82389C76.4795 8.82389 76.6473 8.81593 76.7992 8.81593C77.1588 8.81593 77.4626 8.89557 77.7103 9.06281C77.9581 9.22208 78.078 9.46896 78.078 9.80344C78.078 10.2574 77.9101 10.5839 77.5744 10.7989C77.2388 11.0139 76.8312 11.1175 76.3356 11.1175C76.2477 11.1175 76.1838 11.1175 76.1438 11.1175C76.1438 11.4679 76.1518 11.9377 76.1758 12.5191H75.3765C75.4005 11.9776 75.4165 11.3325 75.4165 10.5919C75.4165 9.91493 75.4005 9.32561 75.3765 8.83982L75.3845 8.83185ZM68.4391 10.7033C68.8787 9.57249 69.1025 8.95131 69.1025 8.83185H70.1735C70.1735 8.93538 70.3733 9.55656 70.7729 10.6715C71.1725 11.7944 71.3723 12.4076 71.3723 12.5032H70.4612C70.4612 12.3757 70.3733 12.0253 70.2054 11.444H68.8947C68.7188 12.0174 68.6309 12.3678 68.6309 12.5032H67.7757C67.7757 12.4315 67.9995 11.8262 68.4391 10.6954V10.7033ZM62.8045 8.83185H63.3C63.3799 8.83185 63.4998 8.83185 63.6596 8.82389C63.8195 8.82389 63.9234 8.81593 63.9713 8.81593C64.6507 8.81593 65.1462 8.98317 65.4579 9.32561C65.7617 9.66805 65.9215 10.0742 65.9215 10.5441C65.9215 11.0776 65.7457 11.5475 65.402 11.9457C65.0583 12.3439 64.5788 12.543 63.9554 12.543C63.6756 12.543 63.292 12.535 62.7965 12.5111C62.8204 11.9457 62.8364 11.3006 62.8364 10.5839C62.8364 9.86715 62.8204 9.30968 62.7965 8.83185H62.8045ZM61.0141 8.83185H61.8134C61.7894 9.30968 61.7734 9.89104 61.7734 10.5839C61.7734 11.2767 61.7894 11.9377 61.8134 12.5111H61.0141C61.0381 11.9298 61.0541 11.2847 61.0541 10.5839C61.0541 9.88308 61.0381 9.30968 61.0141 8.83185ZM57.1378 9.31765C57.4895 8.93538 57.9291 8.74425 58.4566 8.74425C58.9841 8.74425 59.3757 8.91946 59.7114 9.26986C60.0471 9.62027 60.2149 10.0662 60.2149 10.5998C60.2149 11.1812 60.0391 11.659 59.6794 12.0413C59.3277 12.4235 58.8882 12.6147 58.3607 12.6147C57.8332 12.6147 57.4415 12.4395 57.1059 12.089C56.7702 11.7386 56.6023 11.2927 56.6023 10.7591C56.6023 10.1777 56.7782 9.69991 57.1378 9.31765ZM49.2413 8.83185H49.7368C49.8168 8.83185 49.9367 8.83185 50.0965 8.82389C50.2564 8.82389 50.3603 8.81593 50.4082 8.81593C51.0876 8.81593 51.5831 8.98317 51.8948 9.32561C52.1985 9.66805 52.3584 10.0742 52.3584 10.5441C52.3584 11.0776 52.1825 11.5475 51.8388 11.9457C51.4952 12.3439 51.0156 12.543 50.3922 12.543C50.1125 12.543 49.7288 12.535 49.2333 12.5111C49.2573 11.9457 49.2733 11.3006 49.2733 10.5839C49.2733 9.86715 49.2573 9.30968 49.2333 8.83185H49.2413ZM45.2051 8.83185H46.0443C46.0443 8.93538 46.2761 9.33357 46.7477 10.0264C47.2432 10.7671 47.5309 11.2688 47.6029 11.5316H47.6428C47.5949 11.1095 47.5709 10.7352 47.5709 10.4007C47.5709 9.89104 47.5549 9.36543 47.5309 8.83185H48.2423C48.2183 9.30172 48.2023 9.88308 48.2023 10.5839C48.2023 11.2847 48.2183 11.9298 48.2423 12.5111H47.5389C47.5389 12.4315 47.2752 12.0253 46.7557 11.2847C46.2122 10.5043 45.9005 9.97864 45.8285 9.69195H45.7806C45.8285 10.1061 45.8525 10.4804 45.8525 10.8069C45.8525 11.2688 45.8685 11.8422 45.8925 12.5111H45.1971C45.2291 11.9298 45.2371 11.2847 45.2371 10.5839C45.2371 9.88308 45.2211 9.30968 45.1971 8.83185H45.2051ZM41.6565 10.7033C42.0961 9.57249 42.3199 8.95131 42.3199 8.83185H43.3909C43.3909 8.93538 43.5907 9.55656 43.9903 10.6715C44.3899 11.7944 44.5897 12.4076 44.5897 12.5032H43.6786C43.6786 12.3757 43.5907 12.0253 43.4228 11.444H42.1121C41.9362 12.0174 41.8483 12.3678 41.8483 12.5032H40.9931C40.9931 12.4315 41.2169 11.8262 41.6565 10.6954V10.7033ZM11.7569 9.40525C17.4954 12.6067 23.234 15.8161 28.9725 19.0096C29.2363 19.1529 29.2283 19.2405 29.0285 19.4396C27.7417 20.6979 26.4709 21.9642 25.2001 23.2384C25.0642 23.3738 24.9763 23.4534 24.7925 23.2702C20.2288 18.6273 15.6572 14.0004 11.0855 9.36543C11.0455 9.32561 11.0136 9.27783 10.9416 9.18226C11.2853 9.18226 11.5251 9.27783 11.7569 9.40525ZM9.99053 37.6608C9.51098 37.2945 9.32716 36.8007 9.32716 36.2114C9.32716 33.7347 9.32716 31.2659 9.32716 28.7891C9.32716 27.0371 9.32716 25.293 9.32716 23.541C9.32716 19.368 9.32716 15.187 9.32716 11.0139C9.32716 10.5043 9.42307 10.0344 9.79072 9.64416C9.93458 9.49285 10.0305 9.45303 10.2063 9.62823C13.0276 12.4952 15.849 15.3542 18.6783 18.2132C20.5086 20.0688 22.3388 21.9164 24.1771 23.764C24.3529 23.9392 24.3689 24.0347 24.1771 24.2259C19.6853 28.6776 15.1936 33.1374 10.7178 37.6051C10.4461 37.8758 10.2543 37.8519 9.99053 37.6449V37.6608ZM28.477 28.59C23.1301 31.5048 17.7831 34.4355 12.4442 37.3582C12.3563 37.406 12.2764 37.4856 12.2284 37.5175C16.3925 33.3205 20.5645 29.1316 24.7206 24.9267C24.9763 24.6639 25.0962 24.7037 25.328 24.9426C26.383 26.0416 27.454 27.1167 28.5329 28.1919C28.7248 28.383 28.7407 28.4547 28.485 28.598L28.477 28.59ZM35.4464 24.7117C35.1986 24.8948 34.9189 25.0462 34.6471 25.1975C33.0327 26.0894 31.4102 26.9734 29.7957 27.8653C29.58 27.9848 29.4521 27.9848 29.2682 27.7937C28.1173 26.615 26.9584 25.4364 25.7995 24.2737C25.6317 24.1064 25.6237 24.0109 25.7995 23.8436C27.1582 22.5137 28.509 21.1678 29.8517 19.8219C30.0115 19.6626 30.1234 19.6467 30.3232 19.7582C31.9217 20.6581 33.5282 21.55 35.1267 22.442C35.6222 22.7207 36.0059 23.0791 36.0298 23.6604C36.0139 24.1303 35.7901 24.4648 35.4544 24.7117H35.4464ZM52.4063 28.6617C51.1755 29.9519 49.569 30.5969 47.5869 30.5969C45.6048 30.5969 44.0862 29.9439 42.7595 28.6378C41.4327 27.3318 40.7693 25.7071 40.7693 23.7719C40.7693 21.8367 41.4327 20.2121 42.7595 18.9061C44.0862 17.6 45.6927 16.947 47.5869 16.947C48.53 16.947 49.4251 17.1301 50.2803 17.4965C51.1355 17.8628 51.8229 18.3486 52.3344 18.9538L51.1835 20.1006C50.3203 19.0653 49.1214 18.5477 47.5949 18.5477C46.2122 18.5477 45.0213 19.0335 44.0143 19.9971C43.0072 20.9607 42.5037 22.219 42.5037 23.764C42.5037 25.309 43.0072 26.5672 44.0143 27.5309C45.0213 28.4945 46.2122 28.9803 47.5949 28.9803C49.0575 28.9803 50.2803 28.4945 51.2554 27.5229C51.8868 26.8938 52.2545 26.0098 52.3504 24.8789H47.5869V23.31H53.9488C54.0128 23.6525 54.0368 23.979 54.0368 24.2976C54.0368 26.1213 53.4933 27.5786 52.4063 28.6617ZM53.9169 11.0458C53.9169 11.5316 53.9249 12.0174 53.9409 12.5111H53.1496C53.1736 11.9457 53.1896 11.3006 53.1896 10.5839C53.1896 9.86715 53.1736 9.30968 53.1496 8.83185H53.6371C53.6931 8.83185 53.813 8.83185 53.9968 8.82389C54.1806 8.82389 54.3405 8.81593 54.5003 8.81593C55.3715 8.81593 55.8031 9.11059 55.8031 9.69991C55.8031 10.1698 55.5553 10.4963 55.0598 10.6795V10.7193C55.2516 10.775 55.4195 10.9184 55.5633 11.1652C55.7072 11.4121 55.899 11.8581 56.1468 12.5032H55.3076C55.0918 11.8342 54.9239 11.4281 54.804 11.2688C54.6842 11.1095 54.5003 11.0378 54.2366 11.0378C54.1247 11.0378 54.0208 11.0378 53.9249 11.0378L53.9169 11.0458ZM62.6606 29.2351C61.7894 30.143 60.6865 30.5969 59.3437 30.5969C58.001 30.5969 56.8981 30.143 56.0269 29.2351C55.1637 28.3272 54.7241 27.1964 54.7241 25.8266C54.7241 24.4568 55.1557 23.326 56.0269 22.4181C56.8901 21.5102 58.001 21.0563 59.3437 21.0563C60.6865 21.0563 61.7894 21.5102 62.6606 22.4181C63.5238 23.326 63.9634 24.4568 63.9634 25.8266C63.9634 27.1964 63.5318 28.3272 62.6606 29.2351ZM72.4593 29.2351C71.5881 30.143 70.4852 30.5969 69.1424 30.5969C67.7997 30.5969 66.6968 30.143 65.8256 29.2351C64.9624 28.3272 64.5228 27.1964 64.5228 25.8266C64.5228 24.4568 64.9544 23.326 65.8256 22.4181C66.6888 21.5102 67.7997 21.0563 69.1424 21.0563C70.4852 21.0563 71.5881 21.5102 72.4593 22.4181C73.3225 23.326 73.7621 24.4568 73.7621 25.8266C73.7621 27.1964 73.3305 28.3272 72.4593 29.2351ZM72.9308 11.1175C72.8429 11.1175 72.779 11.1175 72.739 11.1175C72.739 11.4679 72.747 11.9377 72.771 12.5191H71.9718C71.9957 11.9776 72.0117 11.3325 72.0117 10.5919C72.0117 9.91493 71.9957 9.32561 71.9718 8.83982H72.4673C72.5392 8.83982 72.6751 8.83982 72.8669 8.83185C73.0667 8.83185 73.2346 8.82389 73.3864 8.82389C73.7461 8.82389 74.0498 8.90353 74.2976 9.07077C74.5453 9.23005 74.6652 9.47692 74.6652 9.8114C74.6652 10.2653 74.4974 10.5919 74.1617 10.8069C73.826 11.0219 73.4184 11.1254 72.9308 11.1254V11.1175ZM83.337 29.8483C83.337 31.3853 82.8894 32.548 82.0023 33.3444C81.1071 34.1408 80.0201 34.539 78.7413 34.539C77.6783 34.539 76.8152 34.2762 76.1358 33.7426C75.4644 33.209 74.9849 32.6038 74.6892 31.9269L76.2317 31.2898C76.3996 31.7756 76.7193 32.1817 77.1748 32.5162C77.6304 32.8427 78.1579 33.01 78.7413 33.01C79.6685 33.01 80.3958 32.7312 80.9313 32.1817C81.4588 31.6243 81.7305 30.8757 81.7305 29.928V29.0679H81.6586C81.3629 29.5059 80.9473 29.8722 80.4118 30.1669C79.8763 30.4615 79.2688 30.6049 78.5975 30.6049C77.4386 30.6049 76.4315 30.1509 75.5923 29.2351C74.7531 28.3193 74.3295 27.1884 74.3295 25.8425C74.3295 24.4967 74.7531 23.3578 75.5923 22.45C76.4315 21.5341 77.4386 21.0802 78.5975 21.0802C79.2688 21.0802 79.8763 21.2235 80.4118 21.5182C80.9473 21.8128 81.3629 22.1792 81.6586 22.6172H81.7305V21.3748H83.345V29.8643L83.337 29.8483ZM83.0892 12.0413C82.7375 12.4235 82.298 12.6147 81.7705 12.6147C81.243 12.6147 80.8513 12.4395 80.5157 12.089C80.18 11.7386 80.0121 11.2927 80.0121 10.7591C80.0121 10.1777 80.188 9.69991 80.5476 9.31765C80.8993 8.93538 81.3389 8.74425 81.8664 8.74425C82.3939 8.74425 82.7855 8.91946 83.1212 9.26986C83.4569 9.62027 83.6247 10.0662 83.6247 10.5998C83.6247 11.1812 83.4489 11.659 83.0892 12.0413ZM86.6139 30.3023H84.9275V17.2337H86.6139V30.3023ZM87.4691 12.5111H86.7657C86.7657 12.4315 86.502 12.0253 85.9825 11.2847C85.439 10.5043 85.1273 9.97864 85.0554 9.69195H85.0074C85.0554 10.1061 85.0793 10.4804 85.0793 10.8069C85.0793 11.2688 85.0953 11.8422 85.1193 12.5111H84.424C84.4559 11.9298 84.4639 11.2847 84.4639 10.5839C84.4639 9.88308 84.4479 9.30968 84.424 8.83185H85.2632C85.2632 8.93538 85.4949 9.33357 85.9665 10.0264C86.462 10.7671 86.7497 11.2688 86.8217 11.5316H86.8616C86.8137 11.1095 86.7897 10.7352 86.7897 10.4007C86.7897 9.89104 86.7737 9.36543 86.7497 8.83185H87.4611C87.4371 9.30172 87.4211 9.88308 87.4211 10.5839C87.4211 11.2847 87.4371 11.9298 87.4611 12.5111H87.4691ZM96.3806 26.1372H89.2913C89.3393 27.0371 89.643 27.7538 90.1945 28.2715C90.754 28.7971 91.4013 29.0599 92.1446 29.0599C93.3515 29.0599 94.1747 28.5502 94.5983 27.5229L96.1009 28.1441C95.8052 28.8369 95.3256 29.4183 94.6543 29.8881C93.9829 30.358 93.1597 30.589 92.1846 30.589C90.8259 30.589 89.7229 30.135 88.8757 29.2351C88.0285 28.3352 87.6049 27.1964 87.6049 25.8186C87.6049 24.5126 88.0205 23.3976 88.8438 22.4579C89.667 21.5182 90.722 21.0563 92.0008 21.0563C93.2796 21.0563 94.3985 21.4863 95.1977 22.3544C95.997 23.2145 96.3966 24.3772 96.3966 25.8266L96.3806 26.1372ZM108.705 23.8994C107.89 24.632 106.931 25.0063 105.82 25.0063H103.038V30.3023H101.352V17.2337H105.82C106.931 17.2337 107.89 17.6 108.705 18.3406C109.52 19.0813 109.92 20.0051 109.92 21.128C109.92 22.2509 109.512 23.1747 108.705 23.9153V23.8994ZM112.709 30.3023H111.023V17.2337H112.709V30.3023ZM121.685 30.3023H120.07V29.0599H119.998C119.327 30.0793 118.344 30.5969 117.049 30.5969C116.098 30.5969 115.299 30.3262 114.659 29.7766C114.02 29.2271 113.7 28.5024 113.7 27.6025C113.7 26.6309 114.076 25.8664 114.835 25.309C115.594 24.7515 116.53 24.4807 117.64 24.4807C118.632 24.4807 119.439 24.6639 120.078 25.0302V24.7754C120.078 24.1144 119.854 23.5888 119.399 23.1985C118.943 22.8004 118.392 22.6013 117.728 22.6013C117.241 22.6013 116.793 22.7207 116.402 22.9517C116.002 23.1826 115.73 23.5012 115.586 23.8994L114.044 23.2384C114.252 22.7048 114.659 22.211 115.275 21.7491C115.882 21.2952 116.689 21.0643 117.696 21.0643C118.847 21.0643 119.798 21.3987 120.558 22.0677C121.317 22.7366 121.693 23.6843 121.693 24.8948V30.3023H121.685ZM125.353 34.2443H123.611L125.697 29.7368L121.996 21.3589H123.827L126.504 27.7857H126.544L129.142 21.3589H130.972L125.345 34.2443H125.353Z" fill="#E6E6E6"/>
</g>
<defs>
<clipPath id="clip0_379_4694">
<rect width="135" height="44" fill="white"/>
</clipPath>
</defs>
</svg>
