<svg width="185" height="24" viewBox="0 0 185 24" fill="none" xmlns="http://www.w3.org/2000/svg">
<g clip-path="url(#clip0_25_20)">
<path d="M101.368 16.1856V6.22815H93.4849V4.66528H103.133V2.19268H93.4849V0.177856H90.9485V2.19559H81.3V4.66528H90.9485V6.22815H83.0169V16.1885H88.7111C87.1696 17.801 84.5325 19.291 80.8284 20.6264L82.272 22.997C86.4736 21.0813 89.3581 18.8361 90.9513 16.2148V23.7288H93.4878V16.1885C95.3284 18.9382 98.3365 21.1804 102.515 22.8949L103.683 20.4485C100.2 19.3901 97.5658 17.9526 95.7741 16.1885H101.371L101.368 16.1856ZM90.9485 13.9171H85.5275V12.2289H90.9485V13.9171ZM90.9485 10.2111H85.5275V8.49665H90.9485V10.2111ZM93.4849 8.49665H98.857V10.2111H93.4849V8.49665ZM93.4849 13.9171V12.2289H98.857V13.9171H93.4849Z" fill="#000"/>
<path d="M126.882 14.6228H130.563V12.1269H125.988V9.9342H123.451V12.1269H119.946V14.6228H122.606C121.461 16.5385 119.946 18.2034 118.056 19.6642L119.549 21.8569C121.041 20.3932 122.333 18.6058 123.454 16.486V23.5189H125.991V16.3344C126.81 18.2763 127.981 20.09 129.522 21.7811L131.213 19.6118C129.249 18.1247 127.805 16.4598 126.885 14.6199L126.882 14.6228Z" fill="#000"/>
<path d="M109.725 10.5406C113.604 9.07688 116.463 7.26325 118.329 5.04432V10.768H120.915V7.46444C121.933 7.7152 122.928 8.01844 123.923 8.42374C125.464 9.03022 126.931 9.70961 128.375 10.491L129.344 8.22255C127.702 7.46735 126.336 6.91043 125.266 6.55762C124.32 6.23105 122.853 5.82575 120.915 5.34756V4.96851H129.968V2.44633H120.915V0.250732H118.329V2.44342H109.276V4.96559H115.939C114.174 6.2777 111.637 7.35947 108.356 8.2692L109.725 10.5377V10.5406Z" fill="#000"/>
<path d="M115.37 15.2554V14.6256H118.902V12.1297H115.37V9.93701H112.808V12.1297H108.655V14.6256H112.284C111.191 16.4917 109.774 18.1567 107.982 19.5679L109.475 21.8131C110.717 20.5272 111.836 18.9906 112.808 17.174V23.5276H115.37V17.4015C115.868 17.9817 116.463 18.7136 117.11 19.5708L118.577 17.3781C117.484 16.5967 116.414 15.8911 115.367 15.2613L115.37 15.2554Z" fill="#000"/>
<path d="M147.326 2.19269H142.8C142.501 1.38501 142.228 0.653141 141.928 0L139.242 0.454866C139.59 0.985542 139.913 1.56287 140.212 2.1956H135.909V4.61572H147.324V2.19269H147.326Z" fill="#000"/>
<path d="M145.509 15.582L143.369 16.1623C143.916 17.6493 144.39 19.1889 144.761 20.7518L146.924 19.8945C146.576 18.5824 146.104 17.1478 145.506 15.582H145.509Z" fill="#000"/>
<path d="M135.19 21.5332L137.33 22.9211C138.374 21.0287 139.171 18.8127 139.743 16.2381L137.405 15.7336C136.982 17.7747 136.237 19.7166 135.19 21.5332Z" fill="#000"/>
<path d="M150.956 4.08501C153.492 3.93339 155.83 3.50477 157.944 2.79914L156.676 0.454834C154.24 1.38789 151.502 1.89233 148.445 1.94189V12.8587C148.345 16.5909 147.574 19.4892 146.156 21.5828L148.022 23.5743C149.863 20.9005 150.832 17.3461 150.956 12.8587V10.4881H153.616V23.6238H156.178V10.4881H158.467V7.99219H150.959V4.08501H150.956Z" fill="#000"/>
<path d="M147.05 12.3543H142.898V10.3132H147.473V7.91933H145.037C145.385 7.18746 145.684 6.40603 145.958 5.54878L143.645 4.71777C143.372 5.82578 143.047 6.88713 142.699 7.91933H140.511C140.163 6.68303 139.815 5.62459 139.441 4.71777L137.178 5.60126C137.574 6.30689 137.899 7.08832 138.196 7.92224H135.659V10.3161H140.309V12.3572H136.056V14.7511H140.309V23.7026H142.895V14.7511H147.048V12.3572L147.05 12.3543Z" fill="#000"/>
<path d="M180.749 18.5825H178.759V12.1036H180.402V9.88464H167.768V12.1036H169.358V18.5825H167.544V20.8014H176.47V23.1457H178.759V20.8014H180.749V18.5825ZM176.473 18.5825H171.647V17.6232H176.473V18.5825ZM176.473 15.8854H171.647V14.8765H176.473V15.8854ZM176.473 13.1358H171.647V12.1007H176.473V13.1358Z" fill="#000"/>
<path d="M173.462 1.03223H163.563V23.5743H166.149V8.77369H173.459V1.03223H173.462ZM170.926 6.85801H166.152V5.72376H170.926V6.85801ZM170.926 3.9597H166.152V2.95083H170.926V3.9597Z" fill="#000"/>
<path d="M175.202 1.03223V8.79702H182.415V20.294C182.415 20.9005 182.115 21.2271 181.569 21.2271C180.948 21.2271 180.275 21.1775 179.53 21.0755L180.128 23.4198C180.899 23.4694 181.696 23.5218 182.489 23.5218C184.154 23.5218 185 22.7142 185 21.1017V1.03223H175.202ZM182.415 6.88133H177.738V5.72084H182.415V6.88133ZM182.415 3.95678H177.738V2.99748H182.415V3.95678Z" fill="#000"/>
<path d="M46.1314 14.3633C45.5648 13.5615 44.8056 12.9287 43.8508 12.4709C42.896 12.0132 41.8349 11.7624 40.6673 11.7274V11.5029C41.7198 11.325 42.6401 11.0014 43.4252 10.5348C44.2132 10.0683 44.8257 9.48807 45.2629 8.79411C45.7 8.10015 45.9185 7.33038 45.9185 6.48771C45.9185 5.3243 45.5591 4.31252 44.8372 3.45236C44.1154 2.59511 43.0513 1.93031 41.6393 1.45794C40.2301 0.9885 38.4902 0.752319 36.4196 0.752319H24.6402V23.6822H37.4262C39.399 23.6822 41.0958 23.4023 42.5193 22.8425C43.9428 22.2826 45.0414 21.5129 45.815 20.5361C46.5886 19.5593 46.9769 18.4425 46.9769 17.1887C46.9769 16.107 46.695 15.1651 46.1285 14.3604L46.1314 14.3633ZM32.0167 5.63629H35.1485C36.0688 5.63629 36.828 5.82582 37.4291 6.20196C38.0301 6.5781 38.3321 7.12336 38.3321 7.8319C38.3321 8.30134 38.194 8.70081 37.9151 9.02446C37.6361 9.34812 37.2508 9.59888 36.7532 9.76799C36.2557 9.93711 35.6863 10.0246 35.0421 10.0246H32.0167V5.63629ZM38.2516 18.1247C37.6332 18.5154 36.7044 18.7137 35.4649 18.7137H32.0167V13.8764H35.5713C36.3219 13.8764 36.9661 13.9726 37.501 14.1679C38.0359 14.3633 38.45 14.6461 38.7404 15.0194C39.0309 15.3926 39.1776 15.8474 39.1776 16.384C39.1776 17.1537 38.867 17.734 38.2487 18.1247H38.2516Z" fill="#FECC02"/>
<path d="M12.0469 17.8097C9.00141 17.8097 6.53394 15.3079 6.53394 12.2201C6.53394 9.13225 9.00141 6.63049 12.0469 6.63049C15.0924 6.63049 17.5599 9.13517 17.5599 12.2201C17.5599 15.305 15.0924 17.8097 12.0469 17.8097Z" fill="#FECC02"/>
<path d="M12.0469 20.3552C7.62386 20.3552 4.0233 16.7075 4.0233 12.2201C4.0233 7.73265 7.62098 4.08789 12.0469 4.08789C13.8788 4.08789 15.5641 4.72062 16.9157 5.77323H19.8289V0.755127H0V23.685H19.7772V18.6698H16.9157C15.5641 19.7224 13.8788 20.3552 12.0469 20.3552Z" fill="#FECC02"/>
<path d="M65.3736 16.1361C65.3017 16.3431 65.2154 16.5414 65.1148 16.7251C64.8962 17.1158 64.6173 17.4511 64.2722 17.7281C63.9299 18.0051 63.5244 18.215 63.0586 18.3608C62.5927 18.5066 62.0664 18.5795 61.4797 18.5795C60.4502 18.5795 59.5673 18.3433 58.8368 17.8681C58.1035 17.3928 57.5456 16.6842 57.1602 15.7395C56.7748 14.7948 56.5822 13.6226 56.5822 12.2172C56.5822 10.8876 56.772 9.75045 57.1487 8.80281C57.5254 7.85517 58.0833 7.12622 58.8196 6.61887C59.5558 6.11152 60.4588 5.85785 61.5257 5.85785C62.1354 5.85785 62.6818 5.94241 63.1621 6.10861C63.6423 6.27772 64.0536 6.51682 64.3929 6.82589C64.7323 7.13497 64.9997 7.50236 65.1953 7.92807C65.2471 8.04179 65.2931 8.16133 65.3362 8.2838L71.7407 7.65982C71.5595 6.90171 71.3036 6.199 70.97 5.55169C70.3977 4.4466 69.6414 3.51646 68.7038 2.75835C67.7663 2.00024 66.6735 1.42291 65.4311 1.02927C64.1859 0.632723 62.8256 0.434448 61.3445 0.434448C59.2394 0.434448 57.3299 0.883482 55.6216 1.78447C53.9134 2.68253 52.5531 4.00923 51.5466 5.75871C50.54 7.50819 50.0367 9.66006 50.0367 12.2143C50.0367 14.7685 50.5314 16.8971 51.5178 18.6524C52.5071 20.4077 53.853 21.7344 55.5584 22.6383C57.2637 23.5422 59.1934 23.9942 61.3445 23.9942C63.0614 23.9942 64.5684 23.7376 65.8654 23.2215C67.1624 22.7054 68.2523 22.026 69.1323 21.1775C70.0123 20.3319 70.6939 19.4047 71.1742 18.4016C71.4388 17.8476 71.6401 17.2995 71.7839 16.7542L65.3736 16.1302V16.1361Z" fill="#FECC02"/>
</g>
<defs>
<clipPath id="clip0_25_20">
<rect width="185" height="24" fill="#000"/>
</clipPath>
</defs>
</svg>
