<svg xmlns="http://www.w3.org/2000/svg" viewBox="0 0 34 34"><path d="M10.733,23.757H8.3l4.882-13.514H15.6L20.48,23.757h-2.5L16.9,20.632H11.849l-1.111,3.125Zm3.346-9.482-1.553,4.361h3.68l-1.554-4.361c-.048-.187-.1-.369-.165-.556a2,2,0,0,1-.108-.482c-.026.122-.065.283-.122.473s-.113.378-.173.565Z" fill="#2d3033"/><polygon points="25.705 14.969 23.484 14.969 23.484 12.747 21.544 12.747 21.544 14.969 19.326 14.969 19.326 16.909 21.544 16.909 21.544 19.126 23.484 19.126 23.484 16.909 25.705 16.909 25.705 14.969" fill="#2d3033"/></svg>